<svg xmlns="http://www.w3.org/2000/svg" viewBox="0 0 256.72 256.72"><defs><style>.cls-1{fill:#212121;}</style></defs><g id="Layer_2" data-name="Layer 2"><g id="Layer_1-2" data-name="Layer 1"><path class="cls-1" d="M128.29,256.72a128.36,128.36,0,1,1,128.43-128.3A128.17,128.17,0,0,1,128.29,256.72Zm16.15-109.13c-35.68,10.87-61.28,33.55-80.79,64,30.19,25.24,75,28,102.47,15A414.2,414.2,0,0,0,144.44,147.59ZM46.87,195.93c22.11-33,50.88-57.07,89-69.27-2.06-4.39-3.84-8.22-5.65-12-.44-.93-1-1.84-1.56-3-34.53,10.71-70,13.75-106.12,14.17C22.16,152.38,30.37,175.33,46.87,195.93ZM25.54,103.09c31.76-.25,62.37-3,92.38-11.68C111.89,78.59,87,41,80.05,34.2,52.26,49.18,34.17,71.86,25.54,103.09ZM192.86,44.44c-27.46-19.95-57.09-26.35-90.36-18.7a507.92,507.92,0,0,1,37.21,58C160.56,74.78,178.63,62.62,192.86,44.44Zm-26,98.61a451.57,451.57,0,0,1,20.3,72.75c20.67-10.17,47.05-51.9,44.94-70.73C217.82,141,183.7,139.87,166.9,143.05Zm67-20.82c-1.68-23.66-9.77-43.95-24.68-62C193.18,79.94,173,93.6,150.14,103.71c2.78,6.1,5.35,11.72,8.1,17.74C183.29,117.24,208.31,118.19,233.93,122.23Z"/></g></g></svg>