<svg xmlns="http://www.w3.org/2000/svg" viewBox="0 0 328.3 208.47"><defs><style>.cls-1{fill:#212121;}</style></defs><g id="Layer_2" data-name="Layer 2"><g id="Layer_1-2" data-name="Layer 1"><path class="cls-1" d="M0,203.27V.5C1-.21,1.93.05,2.83.05Q54.75,0,106.65,0a67,67,0,0,1,24.46,4.24c18.76,7.25,29.15,21.13,31.8,40.92a56,56,0,0,1-1.06,22.28c-3.32,12.25-11.13,20.26-23.17,24.18l-2.6.81c0,.62.32.72.69.75,15.74,1.59,25.4,10.77,30,25.24,5.71,17.85,5.72,35.8-2,53.15-6.22,13.87-17.57,22.23-31.57,27.31a83.29,83.29,0,0,1-28.62,4.8q-50.92,0-101.86,0A4.46,4.46,0,0,1,0,203.27Zm46.75-35.76h3.71q25.23,0,50.47,0c1.78,0,3.56,0,5.32-.19,10.74-1,17.75-6.84,20.09-16.93a41.24,41.24,0,0,0-.22-19.72c-2.94-11.57-10.77-17.62-22.71-17.62q-26.62,0-53.27,0c-1.09,0-2.24-.29-3.39.42Zm0-85.86h6.79c16.93,0,33.86,0,50.79-.11,7.47-.07,12.15-3.67,14.25-10.81a41.42,41.42,0,0,0,.64-22.17c-2.11-8.32-7.47-12.38-16-12.38q-26.52,0-53,0c-1.1,0-2.24-.28-3.43.41Z"/><path class="cls-1" d="M327.55,140.14H222.73c-1.32,8.39,2,24,14.92,30.63,13.79,7.15,28,6.68,41.9.34,6.94-3.16,10.63-9.21,11.32-17.08h35.46a29.67,29.67,0,0,1-.26,8.05c-2.45,18.66-12.62,31.77-29.84,38.62-26.55,10.56-53.48,10.53-79.67-1.1-19.47-8.64-30.47-24.95-35.2-45.29-6.71-28.84-1.51-55.49,17.32-78.65,12.1-14.89,28.85-21.43,47.59-23.32a95.38,95.38,0,0,1,32.61,2c22.65,5.58,37.08,20,44.4,41.85,4.58,13.68,5.67,27.78,4.69,42.1A16.24,16.24,0,0,1,327.55,140.14ZM288.5,112.88c.51-2.12-.08-3.94-.38-5.75-2.29-13.7-10.88-22.77-23.47-24.92a41.31,41.31,0,0,0-17,.63c-13.12,3.21-25,17.2-25.48,30Z"/><path class="cls-1" d="M296.84,37H213.3V12.12h83.54Z"/></g></g></svg>