<svg xmlns="http://www.w3.org/2000/svg" viewBox="0 0 253.46 257.78"><defs><style>.cls-1{fill:#212121;}</style></defs><g id="Layer_2" data-name="Layer 2"><g id="Layer_1-2" data-name="Layer 1"><path class="cls-1" d="M142.45,81.05v20.21c1.39-1.58,2.2-2.46,3-3.37C165.17,74.56,205.74,70,230,88.4c13.17,10,19.16,24.1,21.95,39.88A101.56,101.56,0,0,1,253.46,146q0,54.33,0,108.67v3H202.25c-.81-1.27-.43-2.7-.43-4.05q-.07-50.15-.12-100.3a52.63,52.63,0,0,0-2.3-14.75c-3.48-11.88-12.37-18.1-24.8-17.39s-22,6.5-28.74,17c-2.59,4.06-3,8.78-3.16,13.41-.24,8.82-.17,17.64-.18,26.46q0,37.62,0,75.23v4.42H91V81.05Z"/><path class="cls-1" d="M55.46,257.78H4.31V81H55.46Z"/><path class="cls-1" d="M59.85,29.94A29.93,29.93,0,1,1,30.08,0,29.88,29.88,0,0,1,59.85,29.94Z"/></g></g></svg>